%TF.GenerationSoftware,KiCad,Pcbnew,(6.0.11)*%
%TF.CreationDate,2024-04-14T00:29:43+01:00*%
%TF.ProjectId,RJ21_RJ45_PRIMARY_BREAKOUT_INSULATOR,524a3231-5f52-44a3-9435-5f5052494d41,rev?*%
%TF.SameCoordinates,Original*%
%TF.FileFunction,Legend,Bot*%
%TF.FilePolarity,Positive*%
%FSLAX46Y46*%
G04 Gerber Fmt 4.6, Leading zero omitted, Abs format (unit mm)*
G04 Created by KiCad (PCBNEW (6.0.11)) date 2024-04-14 00:29:43*
%MOMM*%
%LPD*%
G01*
G04 APERTURE LIST*
%ADD10C,0.300000*%
G04 APERTURE END LIST*
D10*
X171848095Y-82984761D02*
X171848095Y-84413333D01*
X171943333Y-84699047D01*
X172133809Y-84889523D01*
X172419523Y-84984761D01*
X172610000Y-84984761D01*
X169943333Y-84984761D02*
X170895714Y-84984761D01*
X170895714Y-82984761D01*
X168133809Y-84794285D02*
X168229047Y-84889523D01*
X168514761Y-84984761D01*
X168705238Y-84984761D01*
X168990952Y-84889523D01*
X169181428Y-84699047D01*
X169276666Y-84508571D01*
X169371904Y-84127619D01*
X169371904Y-83841904D01*
X169276666Y-83460952D01*
X169181428Y-83270476D01*
X168990952Y-83080000D01*
X168705238Y-82984761D01*
X168514761Y-82984761D01*
X168229047Y-83080000D01*
X168133809Y-83175238D01*
X166705238Y-82984761D02*
X166705238Y-84413333D01*
X166800476Y-84699047D01*
X166990952Y-84889523D01*
X167276666Y-84984761D01*
X167467142Y-84984761D01*
X164800476Y-84984761D02*
X165752857Y-84984761D01*
X165752857Y-82984761D01*
X162990952Y-84794285D02*
X163086190Y-84889523D01*
X163371904Y-84984761D01*
X163562380Y-84984761D01*
X163848095Y-84889523D01*
X164038571Y-84699047D01*
X164133809Y-84508571D01*
X164229047Y-84127619D01*
X164229047Y-83841904D01*
X164133809Y-83460952D01*
X164038571Y-83270476D01*
X163848095Y-83080000D01*
X163562380Y-82984761D01*
X163371904Y-82984761D01*
X163086190Y-83080000D01*
X162990952Y-83175238D01*
X161562380Y-82984761D02*
X161562380Y-84413333D01*
X161657619Y-84699047D01*
X161848095Y-84889523D01*
X162133809Y-84984761D01*
X162324285Y-84984761D01*
X159657619Y-84984761D02*
X160610000Y-84984761D01*
X160610000Y-82984761D01*
X157848095Y-84794285D02*
X157943333Y-84889523D01*
X158229047Y-84984761D01*
X158419523Y-84984761D01*
X158705238Y-84889523D01*
X158895714Y-84699047D01*
X158990952Y-84508571D01*
X159086190Y-84127619D01*
X159086190Y-83841904D01*
X158990952Y-83460952D01*
X158895714Y-83270476D01*
X158705238Y-83080000D01*
X158419523Y-82984761D01*
X158229047Y-82984761D01*
X157943333Y-83080000D01*
X157848095Y-83175238D01*
X156419523Y-82984761D02*
X156419523Y-84413333D01*
X156514761Y-84699047D01*
X156705238Y-84889523D01*
X156990952Y-84984761D01*
X157181428Y-84984761D01*
X154514761Y-84984761D02*
X155467142Y-84984761D01*
X155467142Y-82984761D01*
X152705238Y-84794285D02*
X152800476Y-84889523D01*
X153086190Y-84984761D01*
X153276666Y-84984761D01*
X153562380Y-84889523D01*
X153752857Y-84699047D01*
X153848095Y-84508571D01*
X153943333Y-84127619D01*
X153943333Y-83841904D01*
X153848095Y-83460952D01*
X153752857Y-83270476D01*
X153562380Y-83080000D01*
X153276666Y-82984761D01*
X153086190Y-82984761D01*
X152800476Y-83080000D01*
X152705238Y-83175238D01*
M02*
